<svg width="207" height="38" viewBox="0 0 207 38" fill="none" xmlns="http://www.w3.org/2000/svg">
<path d="M0.44 9H6.04V12.48H6.68C6.78667 11.92 6.98667 11.4 7.28 10.92C7.6 10.44 7.97333 10.0267 8.4 9.68C8.82667 9.30667 9.30667 9.02667 9.84 8.84C10.3733 8.62667 10.92 8.52 11.48 8.52C13.9067 8.52 15.68 9.44 16.8 11.28C17.9467 13.12 18.52 15.8667 18.52 19.52C18.52 23.1733 17.96 25.92 16.84 27.76C15.72 29.5733 13.9333 30.48 11.48 30.48C10.92 30.48 10.3733 30.3733 9.84 30.16C9.30667 29.9733 8.82667 29.7067 8.4 29.36C7.97333 28.9867 7.6 28.56 7.28 28.08C6.98667 27.6 6.78667 27.08 6.68 26.52H6.04V38H0.44V9ZM9.24 25.92C10.28 25.92 11.1067 25.6 11.72 24.96C12.36 24.2933 12.68 23.36 12.68 22.16V16.84C12.68 15.64 12.36 14.72 11.72 14.08C11.1067 13.4133 10.28 13.08 9.24 13.08C8.22667 13.08 7.44 13.32 6.88 13.8C6.32 14.2533 6.04 14.9467 6.04 15.88V23.12C6.04 24.0533 6.32 24.76 6.88 25.24C7.44 25.6933 8.22667 25.92 9.24 25.92ZM22.4322 0.4H28.0322V12.56H28.6722C28.8322 12 29.0455 11.48 29.3122 11C29.6055 10.52 29.9522 10.0933 30.3522 9.72C30.7522 9.34667 31.2189 9.05333 31.7522 8.84C32.2855 8.62667 32.9122 8.52 33.6322 8.52C35.4989 8.52 36.9255 9.16 37.9122 10.44C38.8989 11.6933 39.3922 13.4533 39.3922 15.72V30H33.7922V16.8C33.7922 14.32 32.9255 13.08 31.1922 13.08C30.3389 13.08 29.5922 13.3467 28.9522 13.88C28.3389 14.3867 28.0322 15.1067 28.0322 16.04V30H22.4322V0.4ZM57.8738 30C55.6871 30 54.5004 28.7867 54.3138 26.36H53.7938C53.5804 27.64 53.0071 28.6533 52.0738 29.4C51.1404 30.12 49.9538 30.48 48.5138 30.48C46.6204 30.48 45.1938 29.9467 44.2337 28.88C43.2738 27.7867 42.7938 26.28 42.7938 24.36C42.7938 22.0667 43.4871 20.4 44.8738 19.36C46.2871 18.32 48.2471 17.8 50.7538 17.8H53.7938V16.16C53.7938 15.0667 53.5671 14.2533 53.1138 13.72C52.6604 13.1867 51.9004 12.92 50.8338 12.92C49.9004 12.92 49.1138 13.16 48.4738 13.64C47.8604 14.0933 47.3138 14.7067 46.8338 15.48L43.5138 12.52C44.3671 11.2667 45.4071 10.2933 46.6338 9.6C47.8604 8.88 49.4338 8.52 51.3538 8.52C54.1004 8.52 56.1271 9.16 57.4338 10.44C58.7404 11.72 59.3938 13.6267 59.3938 16.16V25.64H61.1138V30H57.8738ZM50.7538 26.56C51.5804 26.56 52.2871 26.3333 52.8738 25.88C53.4871 25.4 53.7938 24.6667 53.7938 23.68V21.08H51.2738C49.3538 21.08 48.3938 21.88 48.3938 23.48V24.24C48.3938 25.04 48.5938 25.6267 48.9938 26C49.4204 26.3733 50.0071 26.56 50.7538 26.56ZM64.6588 30V9H70.2588V13.48H70.8988C70.9788 12.8933 71.1121 12.3333 71.2988 11.8C71.4854 11.24 71.7388 10.76 72.0588 10.36C72.4054 9.93333 72.8321 9.6 73.3388 9.36C73.8454 9.12 74.4454 9 75.1388 9H76.1388V14.68H74.6988C73.1788 14.68 72.0588 14.8933 71.3388 15.32C70.6188 15.7467 70.2588 16.56 70.2588 17.76V30H64.6588ZM79.3463 30V9H84.9463V12.56H85.5863C85.7463 12 85.9596 11.48 86.2263 11C86.5196 10.52 86.8529 10.0933 87.2263 9.72C87.6263 9.34667 88.0929 9.05333 88.6263 8.84C89.1596 8.62667 89.7729 8.52 90.4663 8.52C91.8263 8.52 92.9063 8.89333 93.7063 9.64C94.5063 10.36 95.0929 11.4 95.4663 12.76H95.9863C96.4396 11.2933 97.1463 10.2267 98.1063 9.56C99.0929 8.86667 100.226 8.52 101.506 8.52C103.293 8.52 104.653 9.16 105.586 10.44C106.546 11.72 107.026 13.48 107.026 15.72V30H101.426V16.8C101.426 14.32 100.613 13.08 98.9863 13.08C98.1596 13.08 97.4529 13.3467 96.8663 13.88C96.2796 14.3867 95.9863 15.1067 95.9863 16.04V30H90.3863V16.8C90.3863 14.32 89.5729 13.08 87.9463 13.08C87.1196 13.08 86.4129 13.3467 85.8263 13.88C85.2396 14.3867 84.9463 15.1067 84.9463 16.04V30H79.3463ZM119.371 30.48C116.438 30.48 114.211 29.5867 112.691 27.8C111.198 26.0133 110.451 23.2533 110.451 19.52C110.451 15.7867 111.198 13.0267 112.691 11.24C114.211 9.42667 116.438 8.52 119.371 8.52C122.304 8.52 124.518 9.42667 126.011 11.24C127.531 13.0267 128.291 15.7867 128.291 19.52C128.291 23.2533 127.531 26.0133 126.011 27.8C124.518 29.5867 122.304 30.48 119.371 30.48ZM119.371 26.04C121.424 26.04 122.451 24.84 122.451 22.44V16.56C122.451 14.16 121.424 12.96 119.371 12.96C117.318 12.96 116.291 14.16 116.291 16.56V22.44C116.291 24.84 117.318 26.04 119.371 26.04ZM131.963 9H137.563V12.48H138.203C138.31 11.92 138.51 11.4 138.803 10.92C139.123 10.44 139.497 10.0267 139.923 9.68C140.35 9.30667 140.83 9.02667 141.363 8.84C141.897 8.62667 142.443 8.52 143.003 8.52C145.43 8.52 147.203 9.44 148.323 11.28C149.47 13.12 150.043 15.8667 150.043 19.52C150.043 23.1733 149.483 25.92 148.363 27.76C147.243 29.5733 145.457 30.48 143.003 30.48C142.443 30.48 141.897 30.3733 141.363 30.16C140.83 29.9733 140.35 29.7067 139.923 29.36C139.497 28.9867 139.123 28.56 138.803 28.08C138.51 27.6 138.31 27.08 138.203 26.52H137.563V38H131.963V9ZM140.763 25.92C141.803 25.92 142.63 25.6 143.243 24.96C143.883 24.2933 144.203 23.36 144.203 22.16V16.84C144.203 15.64 143.883 14.72 143.243 14.08C142.63 13.4133 141.803 13.08 140.763 13.08C139.75 13.08 138.963 13.32 138.403 13.8C137.843 14.2533 137.563 14.9467 137.563 15.88V23.12C137.563 24.0533 137.843 24.76 138.403 25.24C138.963 25.6933 139.75 25.92 140.763 25.92ZM153.956 30V9H159.556V13.48H160.196C160.276 12.8933 160.409 12.3333 160.596 11.8C160.782 11.24 161.036 10.76 161.356 10.36C161.702 9.93333 162.129 9.6 162.636 9.36C163.142 9.12 163.742 9 164.436 9H165.436V14.68H163.996C162.476 14.68 161.356 14.8933 160.636 15.32C159.916 15.7467 159.556 16.56 159.556 17.76V30H153.956ZM176.728 30.48C173.848 30.48 171.541 29.5733 169.808 27.76C168.101 25.92 167.248 23.1733 167.248 19.52C167.248 15.7867 167.994 13.0267 169.488 11.24C171.008 9.42667 173.234 8.52 176.168 8.52C179.101 8.52 181.314 9.42667 182.808 11.24C184.328 13.0267 185.088 15.7867 185.088 19.52V20.88H173.088V22.2C173.088 23.3733 173.448 24.32 174.168 25.04C174.888 25.7333 175.874 26.08 177.128 26.08C178.168 26.08 179.048 25.8533 179.768 25.4C180.514 24.92 181.194 24.2667 181.808 23.44L184.648 26.76C183.794 27.9067 182.701 28.8133 181.368 29.48C180.061 30.1467 178.514 30.48 176.728 30.48ZM176.168 12.72C174.114 12.72 173.088 13.92 173.088 16.32V17.6H179.248V16.32C179.248 13.92 178.221 12.72 176.168 12.72ZM188.76 9H194.36V12.48H195C195.107 11.92 195.307 11.4 195.6 10.92C195.92 10.44 196.294 10.0267 196.72 9.68C197.147 9.30667 197.627 9.02667 198.16 8.84C198.694 8.62667 199.24 8.52 199.8 8.52C202.227 8.52 204 9.44 205.12 11.28C206.267 13.12 206.84 15.8667 206.84 19.52C206.84 23.1733 206.28 25.92 205.16 27.76C204.04 29.5733 202.254 30.48 199.8 30.48C199.24 30.48 198.694 30.3733 198.16 30.16C197.627 29.9733 197.147 29.7067 196.72 29.36C196.294 28.9867 195.92 28.56 195.6 28.08C195.307 27.6 195.107 27.08 195 26.52H194.36V38H188.76V9ZM197.56 25.92C198.6 25.92 199.427 25.6 200.04 24.96C200.68 24.2933 201 23.36 201 22.16V16.84C201 15.64 200.68 14.72 200.04 14.08C199.427 13.4133 198.6 13.08 197.56 13.08C196.547 13.08 195.76 13.32 195.2 13.8C194.64 14.2533 194.36 14.9467 194.36 15.88V23.12C194.36 24.0533 194.64 24.76 195.2 25.24C195.76 25.6933 196.547 25.92 197.56 25.92Z" fill="#00CA40"/>
</svg>
