<svg width="200" height="200" viewBox="0 0 200 200" fill="none" xmlns="http://www.w3.org/2000/svg">
<rect width="200" height="200" fill="#2A2B2C"/>
<path d="M26.1 66.5H40.1V75.2H41.7C41.9667 73.8 42.4667 72.5 43.2 71.3C44 70.1 44.9333 69.0667 46 68.2C47.0667 67.2667 48.2667 66.5667 49.6 66.1C50.9333 65.5667 52.3 65.3 53.7 65.3C59.7667 65.3 64.2 67.6 67 72.2C69.8667 76.8 71.3 83.6667 71.3 92.8C71.3 101.933 69.9 108.8 67.1 113.4C64.3 117.933 59.8333 120.2 53.7 120.2C52.3 120.2 50.9333 119.933 49.6 119.4C48.2667 118.933 47.0667 118.267 46 117.4C44.9333 116.467 44 115.4 43.2 114.2C42.4667 113 41.9667 111.7 41.7 110.3H40.1V139H26.1V66.5ZM48.1 108.8C50.7 108.8 52.7667 108 54.3 106.4C55.9 104.733 56.7 102.4 56.7 99.4V86.1C56.7 83.1 55.9 80.8 54.3 79.2C52.7667 77.5333 50.7 76.7 48.1 76.7C45.5667 76.7 43.6 77.3 42.2 78.5C40.8 79.6333 40.1 81.3667 40.1 83.7V101.8C40.1 104.133 40.8 105.9 42.2 107.1C43.6 108.233 45.5667 108.8 48.1 108.8ZM100.38 120.2C93.0471 120.2 87.4805 117.967 83.6805 113.5C79.9471 109.033 78.0805 102.133 78.0805 92.8C78.0805 83.4667 79.9471 76.5667 83.6805 72.1C87.4805 67.5667 93.0471 65.3 100.38 65.3C107.714 65.3 113.247 67.5667 116.98 72.1C120.78 76.5667 122.68 83.4667 122.68 92.8C122.68 102.133 120.78 109.033 116.98 113.5C113.247 117.967 107.714 120.2 100.38 120.2ZM100.38 109.1C105.514 109.1 108.08 106.1 108.08 100.1V85.4C108.08 79.4 105.514 76.4 100.38 76.4C95.2471 76.4 92.6805 79.4 92.6805 85.4V100.1C92.6805 106.1 95.2471 109.1 100.38 109.1ZM131.862 66.5H145.862V75.2H147.462C147.728 73.8 148.228 72.5 148.962 71.3C149.762 70.1 150.695 69.0667 151.762 68.2C152.828 67.2667 154.028 66.5667 155.362 66.1C156.695 65.5667 158.062 65.3 159.462 65.3C165.528 65.3 169.962 67.6 172.762 72.2C175.628 76.8 177.062 83.6667 177.062 92.8C177.062 101.933 175.662 108.8 172.862 113.4C170.062 117.933 165.595 120.2 159.462 120.2C158.062 120.2 156.695 119.933 155.362 119.4C154.028 118.933 152.828 118.267 151.762 117.4C150.695 116.467 149.762 115.4 148.962 114.2C148.228 113 147.728 111.7 147.462 110.3H145.862V139H131.862V66.5ZM153.862 108.8C156.462 108.8 158.528 108 160.062 106.4C161.662 104.733 162.462 102.4 162.462 99.4V86.1C162.462 83.1 161.662 80.8 160.062 79.2C158.528 77.5333 156.462 76.7 153.862 76.7C151.328 76.7 149.362 77.3 147.962 78.5C146.562 79.6333 145.862 81.3667 145.862 83.7V101.8C145.862 104.133 146.562 105.9 147.962 107.1C149.362 108.233 151.328 108.8 153.862 108.8Z" fill="#02FC23"/>
</svg>
